# xmcd
#
# Track frame offsets: 
#        150
#        13237
#        29582
#        44317
#        63470
#        74060
#        82992
#        96430
#        109935
#        120622
#        133522
#        142565
#        153995
#        164785
#        177927
#        191050
#        205687
#        221552
#        235135
#        246560
#        257157
#        267552
#        277222
#        287360
#        297897
#        309110
#        322202
#        333557
#        342557
#
# Disc length: 4690 seconds
#
# Revision: 2
# Processed by: cddbd v1.5.2PL0 Copyright (c) Steve Scherf et al.
# Submitted via: ExactAudioCopyFreeDBPlugin 1.0
#
DISCID=d112501d
DTITLE=Anita Carter - Apalachian Angel - CD3
DYEAR=2004
DGENRE=Country
TTITLE0=All My Trials
TTITLE1=Voice Of The Bayou
TTITLE2=Sour Grapes
TTITLE3=Johnny, I Hardly Knew You
TTITLE4=My Love
TTITLE5=(Love's) Ring Of Fire
TTITLE6=Fair And Tender Ladies
TTITLE7=Satan's Child
TTITLE8=Fly Pretty Swallow
TTITLE9=At The Sparrow Goes
TTITLE10=Running Back
TTITLE11=The Kentucky Song
TTITLE12=Brian
TTITLE13=A Few Short Years Ago
TTITLE14=Take Me Home
TTITLE15=Farewell
TTITLE16=I Never Will Marry
TTITLE17=No, My Love, No
TTITLE18=Wildwood Flower
TTITLE19=This Life I'm Living
TTITLE20=John Hardy Was A Desperate Little Man
TTITLE21=My Love Loves Me
TTITLE22=Bury Me Beneath The Willow
TTITLE23=Beautiful Isle O'er The Sea
TTITLE24=John, John, John
TTITLE25=In The Highways (I'll Be Somewhere Working For My Lord)
TTITLE26=Little Things Mean A Lot
TTITLE27=Stop Being Mean To Your Baby
TTITLE28=You Weren't Ashamed To Kiss Me
EXTD=
EXTT0=
EXTT1=
EXTT2=
EXTT3=
EXTT4=
EXTT5=
EXTT6=
EXTT7=
EXTT8=
EXTT9=
EXTT10=
EXTT11=
EXTT12=
EXTT13=
EXTT14=
EXTT15=
EXTT16=
EXTT17=
EXTT18=
EXTT19=
EXTT20=
EXTT21=
EXTT22=
EXTT23=
EXTT24=
EXTT25=
EXTT26=
EXTT27=
EXTT28=
PLAYORDER=
